<svg width="347" height="347" viewBox="0 0 347 347" fill="none" xmlns="http://www.w3.org/2000/svg">
<path d="M212.028 51.183C215.458 48.6997 220.312 50.4559 221.359 54.5593L223.831 64.2437C224.724 67.7428 228.484 69.6658 231.844 68.3423L241.143 64.6792C245.084 63.1271 249.348 66.0352 249.342 70.2702L249.328 80.2651C249.323 83.8764 252.486 86.6739 256.07 86.2275L265.988 84.9922C270.191 84.4687 273.598 88.3461 272.539 92.4465L270.04 102.124C269.137 105.62 271.505 109.117 275.087 109.576L285.001 110.846C289.201 111.384 291.537 115.987 289.492 119.695L284.664 128.447C282.92 131.609 284.344 135.584 287.7 136.919L296.986 140.615C300.921 142.181 302.039 147.22 299.136 150.303L292.284 157.58C289.808 160.209 290.198 164.413 293.116 166.541L301.192 172.43C304.614 174.925 304.444 180.084 300.865 182.348L292.418 187.692C289.366 189.623 288.699 193.792 290.996 196.579L297.354 204.291C300.047 207.559 298.6 212.514 294.57 213.817L285.06 216.892C281.624 218.003 279.941 221.876 281.473 225.146L285.712 234.197C287.509 238.032 284.874 242.471 280.647 242.731L270.671 243.344C267.067 243.566 264.473 246.899 265.144 250.447L266.999 260.268C267.786 264.43 264.13 268.074 259.971 267.274L250.156 265.388C246.61 264.706 243.269 267.289 243.036 270.893L242.391 280.867C242.117 285.093 237.67 287.713 233.841 285.905L224.803 281.636C221.538 280.094 217.66 281.765 216.538 285.198L213.433 294.698C212.117 298.723 207.158 300.156 203.899 297.451L196.206 291.07C193.427 288.764 189.255 289.418 187.315 292.463L181.945 300.893C179.669 304.465 174.51 304.619 172.025 301.189L166.162 293.095C164.043 290.17 159.84 289.766 157.203 292.234L149.905 299.063C146.813 301.956 141.777 300.822 140.224 296.883L136.558 287.585C135.233 284.225 131.262 282.788 128.094 284.522L119.327 289.322C115.613 291.356 111.017 289.005 110.492 284.803L109.254 274.885C108.806 271.302 105.317 268.923 101.818 269.815L92.1327 272.283C88.029 273.329 84.1624 269.91 84.6992 265.709L85.9659 255.794C86.4235 252.212 83.6361 249.04 80.0247 249.034L70.0298 249.017C65.7949 249.009 62.9003 244.735 64.4648 240.8L68.1573 231.512C69.4915 228.156 67.5804 224.391 64.0841 223.487L54.4075 220.984C50.3075 219.924 48.5667 215.064 51.0607 211.642L56.947 203.564C59.0738 200.645 58.1592 196.523 54.9976 194.778L46.2474 189.947C42.5399 187.9 42.0623 182.761 45.3291 180.066L53.0394 173.706C55.8252 171.408 55.9645 167.187 53.3363 164.711L46.0623 157.856C42.9802 154.952 43.7958 149.855 47.6302 148.057L56.6799 143.814C59.9497 142.281 61.1342 138.228 59.2044 135.175L53.8637 126.727C51.6007 123.147 53.6583 118.413 57.8193 117.626L67.6398 115.767C71.1881 115.095 73.3434 111.464 72.2334 108.027L69.1614 98.5161C67.8598 94.4861 71.03 90.4125 75.2562 90.6843L85.2305 91.326C88.8344 91.5579 91.825 88.5767 91.6045 84.9721L90.9944 74.9959C90.7358 70.7688 94.8195 67.6115 98.8453 68.9259L108.347 72.0279C111.78 73.1487 115.418 71.005 116.101 67.4588L117.991 57.6442C118.791 53.4857 123.532 51.4432 127.104 53.7174L135.536 59.0849C138.582 61.0242 142.639 59.8525 144.182 56.5876L148.454 47.5514C150.264 43.7227 155.363 42.9232 158.258 46.0145L165.09 53.3101C167.558 55.9461 171.779 55.8202 174.086 53.0416L180.47 45.3516C183.175 42.0932 188.313 42.5871 190.348 46.3011L195.151 55.0665C196.886 58.2336 201.006 59.1612 203.931 57.0437L212.028 51.183Z" fill="white"/>
<path d="M88.0174 133H95.8474C97.8474 133 99.5474 133.68 100.947 135.04C102.327 136.4 103.017 138.07 103.017 140.05C103.017 142.03 102.327 143.7 100.947 145.06C99.5474 146.42 97.8474 147.1 95.8474 147.1H92.1574V154H88.0174V133ZM92.1574 143.23H95.8474C96.7274 143.23 97.4574 142.93 98.0374 142.33C98.6174 141.71 98.9074 140.95 98.9074 140.05C98.9074 139.13 98.6174 138.37 98.0374 137.77C97.4574 137.17 96.7274 136.87 95.8474 136.87H92.1574V143.23ZM109.08 139V141.58C109.42 140.64 110 139.93 110.82 139.45C111.64 138.95 112.58 138.7 113.64 138.7V143.02C112.46 142.86 111.4 143.1 110.46 143.74C109.54 144.36 109.08 145.39 109.08 146.83V154H105.21V139H109.08ZM117.824 137.2C117.184 137.2 116.624 136.97 116.144 136.51C115.684 136.03 115.454 135.47 115.454 134.83C115.454 134.19 115.684 133.63 116.144 133.15C116.624 132.67 117.184 132.43 117.824 132.43C118.484 132.43 119.044 132.67 119.504 133.15C119.984 133.63 120.224 134.19 120.224 134.83C120.224 135.47 119.984 136.03 119.504 136.51C119.044 136.97 118.484 137.2 117.824 137.2ZM119.774 154H115.904V139H119.774V154ZM130.456 154.42C128.196 154.42 126.306 153.66 124.786 152.14C123.286 150.62 122.536 148.74 122.536 146.5C122.536 144.26 123.286 142.38 124.786 140.86C126.306 139.34 128.196 138.58 130.456 138.58C131.916 138.58 133.246 138.93 134.446 139.63C135.646 140.33 136.556 141.27 137.176 142.45L133.846 144.4C133.546 143.78 133.086 143.29 132.466 142.93C131.866 142.57 131.186 142.39 130.426 142.39C129.266 142.39 128.306 142.78 127.546 143.56C126.786 144.32 126.406 145.3 126.406 146.5C126.406 147.66 126.786 148.64 127.546 149.44C128.306 150.2 129.266 150.58 130.426 150.58C131.206 150.58 131.896 150.41 132.496 150.07C133.116 149.71 133.576 149.22 133.876 148.6L137.236 150.52C136.576 151.72 135.636 152.67 134.416 153.37C133.216 154.07 131.896 154.42 130.456 154.42ZM153.628 148.09H142.318C142.818 149.97 144.228 150.91 146.548 150.91C148.028 150.91 149.148 150.41 149.908 149.41L153.028 151.21C151.548 153.35 149.368 154.42 146.488 154.42C144.008 154.42 142.018 153.67 140.518 152.17C139.018 150.67 138.268 148.78 138.268 146.5C138.268 144.26 139.008 142.38 140.488 140.86C141.948 139.34 143.848 138.58 146.188 138.58C148.408 138.58 150.218 139.34 151.618 140.86C153.058 142.38 153.778 144.26 153.778 146.5C153.778 146.92 153.728 147.45 153.628 148.09ZM142.258 145.09H149.908C149.688 144.11 149.238 143.36 148.558 142.84C147.898 142.32 147.108 142.06 146.188 142.06C145.148 142.06 144.288 142.33 143.608 142.87C142.928 143.39 142.478 144.13 142.258 145.09ZM173.25 154H168.54L162.66 133H167.01L171.03 148.57L175.41 133H178.95L183.36 148.57L187.38 133H191.73L185.85 154H181.14L177.18 140.14L173.25 154ZM204.944 152.14C203.424 153.66 201.544 154.42 199.304 154.42C197.064 154.42 195.184 153.66 193.664 152.14C192.144 150.62 191.384 148.74 191.384 146.5C191.384 144.28 192.144 142.41 193.664 140.89C195.204 139.35 197.084 138.58 199.304 138.58C201.524 138.58 203.404 139.35 204.944 140.89C206.484 142.43 207.254 144.3 207.254 146.5C207.254 148.72 206.484 150.6 204.944 152.14ZM196.394 149.47C197.174 150.25 198.144 150.64 199.304 150.64C200.464 150.64 201.434 150.25 202.214 149.47C202.994 148.69 203.384 147.7 203.384 146.5C203.384 145.3 202.994 144.31 202.214 143.53C201.434 142.75 200.464 142.36 199.304 142.36C198.144 142.36 197.174 142.75 196.394 143.53C195.634 144.33 195.254 145.32 195.254 146.5C195.254 147.68 195.634 148.67 196.394 149.47ZM213.846 139V141.58C214.186 140.64 214.766 139.93 215.586 139.45C216.406 138.95 217.346 138.7 218.406 138.7V143.02C217.226 142.86 216.166 143.1 215.226 143.74C214.306 144.36 213.846 145.39 213.846 146.83V154H209.976V139H213.846ZM229.66 139V142.72H226.27V148.96C226.27 149.48 226.4 149.86 226.66 150.1C226.92 150.34 227.3 150.48 227.8 150.52C228.3 150.54 228.92 150.53 229.66 150.49V154C227.04 154.3 225.17 154.06 224.05 153.28C222.95 152.48 222.4 151.04 222.4 148.96V142.72H219.79V139H222.4V135.97L226.27 134.8V139H229.66ZM240.728 138.58C242.388 138.58 243.738 139.13 244.778 140.23C245.858 141.35 246.398 142.87 246.398 144.79V154H242.528V145.27C242.528 144.29 242.258 143.53 241.718 142.99C241.198 142.45 240.478 142.18 239.558 142.18C238.538 142.18 237.728 142.5 237.128 143.14C236.548 143.76 236.258 144.68 236.258 145.9V154H232.388V133H236.258V140.68C237.178 139.28 238.668 138.58 240.728 138.58Z" fill="#161E26"/>
<path d="M104.662 209H98.5181L94.6141 201.768H92.5661V209H86.8381V186.6H95.7981C98.0808 186.6 99.9901 187.336 101.526 188.808C103.083 190.237 103.862 192.083 103.862 194.344C103.862 195.667 103.521 196.893 102.838 198.024C102.155 199.155 101.227 200.051 100.054 200.712L104.662 209ZM95.7341 191.88H92.5661V196.904H95.7341C96.4381 196.925 97.0141 196.701 97.4621 196.232C97.9101 195.763 98.1341 195.155 98.1341 194.408C98.1341 193.661 97.9101 193.053 97.4621 192.584C97.0141 192.115 96.4381 191.88 95.7341 191.88ZM110.921 197.672C110.921 197.949 111.145 198.184 111.593 198.376C112.062 198.547 112.766 198.739 113.705 198.952C114.345 199.08 114.932 199.251 115.465 199.464C116.02 199.656 116.564 199.944 117.097 200.328C117.652 200.691 118.078 201.203 118.377 201.864C118.697 202.504 118.857 203.24 118.857 204.072C118.857 205.928 118.174 207.283 116.809 208.136C115.422 209.011 113.801 209.448 111.945 209.448C108.361 209.448 105.972 208.179 104.777 205.64L109.417 203.304C109.822 204.477 110.654 205.064 111.913 205.064C112.873 205.064 113.353 204.776 113.353 204.2C113.353 203.923 113.129 203.699 112.681 203.528C112.254 203.336 111.561 203.123 110.601 202.888C109.961 202.76 109.374 202.589 108.841 202.376C108.329 202.141 107.796 201.843 107.241 201.48C106.708 201.117 106.292 200.637 105.993 200.04C105.694 199.421 105.545 198.717 105.545 197.928C105.545 196.221 106.174 194.899 107.433 193.96C108.692 193.021 110.206 192.552 111.977 192.552C115.113 192.552 117.31 193.789 118.569 196.264L114.089 198.28C113.62 197.363 112.958 196.904 112.105 196.904C111.316 196.904 110.921 197.16 110.921 197.672ZM123.812 209.448C122.873 209.448 122.073 209.128 121.412 208.488C120.772 207.827 120.452 207.037 120.452 206.12C120.452 205.203 120.783 204.424 121.444 203.784C122.105 203.123 122.895 202.792 123.812 202.792C124.729 202.792 125.508 203.123 126.148 203.784C126.809 204.424 127.14 205.203 127.14 206.12C127.14 207.037 126.809 207.827 126.148 208.488C125.508 209.128 124.729 209.448 123.812 209.448ZM135.704 192.136V186.6H150.872V191.336L143.864 209H137.688L144.344 192.136H135.704ZM157.102 194.472H158.702C160.921 194.472 162.745 195.112 164.174 196.392C165.646 197.672 166.382 199.485 166.382 201.832C166.382 204.264 165.593 206.152 164.014 207.496C162.435 208.819 160.473 209.48 158.126 209.48C156.121 209.48 154.393 209.053 152.942 208.2C151.513 207.347 150.478 206.088 149.838 204.424L154.83 201.576C155.299 203.133 156.398 203.912 158.126 203.912C158.937 203.912 159.555 203.731 159.982 203.368C160.43 202.984 160.654 202.472 160.654 201.832C160.654 201.171 160.43 200.659 159.982 200.296C159.555 199.933 158.969 199.752 158.222 199.752H151.054L151.982 186.6H165.166V192.072H157.262L157.102 194.472ZM183.724 206.312C182.103 208.424 179.831 209.48 176.908 209.48C173.985 209.48 171.703 208.424 170.06 206.312C168.439 204.179 167.628 201.341 167.628 197.8C167.628 194.237 168.439 191.411 170.06 189.32C171.681 187.187 173.964 186.12 176.908 186.12C179.831 186.12 182.103 187.187 183.724 189.32C185.367 191.453 186.188 194.28 186.188 197.8C186.188 201.32 185.367 204.157 183.724 206.312ZM176.908 191.688C174.54 191.688 173.356 193.725 173.356 197.8C173.356 201.875 174.54 203.912 176.908 203.912C179.276 203.912 180.46 201.875 180.46 197.8C180.46 193.725 179.276 191.688 176.908 191.688ZM203.88 206.312C202.259 208.424 199.987 209.48 197.064 209.48C194.142 209.48 191.859 208.424 190.216 206.312C188.595 204.179 187.784 201.341 187.784 197.8C187.784 194.237 188.595 191.411 190.216 189.32C191.838 187.187 194.12 186.12 197.064 186.12C199.987 186.12 202.259 187.187 203.88 189.32C205.523 191.453 206.344 194.28 206.344 197.8C206.344 201.32 205.523 204.157 203.88 206.312ZM197.064 191.688C194.696 191.688 193.512 193.725 193.512 197.8C193.512 201.875 194.696 203.912 197.064 203.912C199.432 203.912 200.616 201.875 200.616 197.8C200.616 193.725 199.432 191.688 197.064 191.688ZM224.037 206.312C222.415 208.424 220.143 209.48 217.221 209.48C214.298 209.48 212.015 208.424 210.373 206.312C208.751 204.179 207.941 201.341 207.941 197.8C207.941 194.237 208.751 191.411 210.373 189.32C211.994 187.187 214.277 186.12 217.221 186.12C220.143 186.12 222.415 187.187 224.037 189.32C225.679 191.453 226.501 194.28 226.501 197.8C226.501 201.32 225.679 204.157 224.037 206.312ZM217.221 191.688C214.853 191.688 213.669 193.725 213.669 197.8C213.669 201.875 214.853 203.912 217.221 203.912C219.589 203.912 220.773 201.875 220.773 197.8C220.773 193.725 219.589 191.688 217.221 191.688ZM243.137 183.4L230.337 212.2H228.097L240.897 183.4H243.137ZM258.162 201.896H245.682V196.84H258.162V201.896Z" fill="#FC2727"/>
</svg>
