<svg width="347" height="347" viewBox="0 0 347 347" fill="none" xmlns="http://www.w3.org/2000/svg">
<path d="M212.028 51.183C215.458 48.6997 220.312 50.4559 221.359 54.5593L223.831 64.2437C224.724 67.7428 228.484 69.6658 231.844 68.3423L241.143 64.6792C245.084 63.1271 249.348 66.0352 249.342 70.2702L249.328 80.2651C249.323 83.8764 252.486 86.6739 256.07 86.2275L265.988 84.9922C270.191 84.4687 273.598 88.3461 272.539 92.4465L270.04 102.124C269.137 105.62 271.505 109.117 275.087 109.576L285.001 110.846C289.201 111.384 291.537 115.987 289.492 119.695L284.664 128.447C282.92 131.609 284.344 135.584 287.7 136.919L296.986 140.615C300.921 142.181 302.039 147.22 299.136 150.303L292.284 157.58C289.808 160.209 290.198 164.413 293.116 166.541L301.192 172.43C304.614 174.925 304.444 180.084 300.865 182.348L292.418 187.692C289.366 189.623 288.699 193.792 290.996 196.579L297.354 204.291C300.047 207.559 298.6 212.514 294.57 213.817L285.06 216.892C281.624 218.003 279.941 221.876 281.473 225.146L285.712 234.197C287.509 238.032 284.874 242.471 280.647 242.731L270.671 243.344C267.067 243.566 264.473 246.899 265.144 250.447L266.999 260.268C267.786 264.43 264.13 268.074 259.971 267.274L250.156 265.388C246.61 264.706 243.269 267.289 243.036 270.893L242.391 280.867C242.117 285.093 237.67 287.713 233.841 285.905L224.803 281.636C221.538 280.094 217.66 281.765 216.538 285.198L213.433 294.698C212.117 298.723 207.158 300.156 203.899 297.451L196.206 291.07C193.427 288.764 189.255 289.418 187.315 292.463L181.945 300.893C179.669 304.465 174.51 304.619 172.025 301.189L166.162 293.095C164.043 290.17 159.84 289.766 157.203 292.234L149.905 299.063C146.813 301.956 141.777 300.822 140.224 296.883L136.558 287.585C135.233 284.225 131.262 282.788 128.094 284.522L119.327 289.322C115.613 291.356 111.017 289.005 110.492 284.803L109.254 274.885C108.806 271.302 105.317 268.923 101.818 269.815L92.1327 272.283C88.029 273.329 84.1624 269.91 84.6992 265.709L85.9659 255.794C86.4235 252.212 83.6361 249.04 80.0247 249.034L70.0298 249.017C65.7949 249.009 62.9003 244.735 64.4648 240.8L68.1573 231.512C69.4915 228.156 67.5804 224.391 64.0841 223.487L54.4075 220.984C50.3075 219.924 48.5667 215.064 51.0607 211.642L56.947 203.564C59.0738 200.645 58.1592 196.523 54.9976 194.778L46.2474 189.947C42.5399 187.9 42.0623 182.761 45.3291 180.066L53.0394 173.706C55.8252 171.408 55.9645 167.187 53.3363 164.711L46.0623 157.856C42.9802 154.952 43.7958 149.855 47.6302 148.057L56.6799 143.814C59.9497 142.281 61.1342 138.228 59.2044 135.175L53.8637 126.727C51.6007 123.147 53.6583 118.413 57.8193 117.626L67.6398 115.767C71.1881 115.095 73.3434 111.464 72.2334 108.027L69.1614 98.5161C67.8598 94.4861 71.03 90.4125 75.2562 90.6843L85.2305 91.326C88.8344 91.5579 91.825 88.5767 91.6045 84.9721L90.9944 74.9959C90.7358 70.7688 94.8195 67.6115 98.8453 68.9259L108.347 72.0279C111.78 73.1487 115.418 71.005 116.101 67.4588L117.991 57.6442C118.791 53.4857 123.532 51.4432 127.104 53.7174L135.536 59.0849C138.582 61.0242 142.639 59.8525 144.182 56.5876L148.454 47.5514C150.264 43.7227 155.363 42.9232 158.258 46.0145L165.09 53.3101C167.558 55.9461 171.779 55.8202 174.086 53.0416L180.47 45.3516C183.175 42.0932 188.313 42.5871 190.348 46.3011L195.151 55.0665C196.886 58.2336 201.006 59.1612 203.931 57.0437L212.028 51.183Z" fill="white"/>
<path d="M88.0174 133H95.8474C97.8474 133 99.5474 133.68 100.947 135.04C102.327 136.4 103.017 138.07 103.017 140.05C103.017 142.03 102.327 143.7 100.947 145.06C99.5474 146.42 97.8474 147.1 95.8474 147.1H92.1574V154H88.0174V133ZM92.1574 143.23H95.8474C96.7274 143.23 97.4574 142.93 98.0374 142.33C98.6174 141.71 98.9074 140.95 98.9074 140.05C98.9074 139.13 98.6174 138.37 98.0374 137.77C97.4574 137.17 96.7274 136.87 95.8474 136.87H92.1574V143.23ZM109.08 139V141.58C109.42 140.64 110 139.93 110.82 139.45C111.64 138.95 112.58 138.7 113.64 138.7V143.02C112.46 142.86 111.4 143.1 110.46 143.74C109.54 144.36 109.08 145.39 109.08 146.83V154H105.21V139H109.08ZM117.824 137.2C117.184 137.2 116.624 136.97 116.144 136.51C115.684 136.03 115.454 135.47 115.454 134.83C115.454 134.19 115.684 133.63 116.144 133.15C116.624 132.67 117.184 132.43 117.824 132.43C118.484 132.43 119.044 132.67 119.504 133.15C119.984 133.63 120.224 134.19 120.224 134.83C120.224 135.47 119.984 136.03 119.504 136.51C119.044 136.97 118.484 137.2 117.824 137.2ZM119.774 154H115.904V139H119.774V154ZM130.456 154.42C128.196 154.42 126.306 153.66 124.786 152.14C123.286 150.62 122.536 148.74 122.536 146.5C122.536 144.26 123.286 142.38 124.786 140.86C126.306 139.34 128.196 138.58 130.456 138.58C131.916 138.58 133.246 138.93 134.446 139.63C135.646 140.33 136.556 141.27 137.176 142.45L133.846 144.4C133.546 143.78 133.086 143.29 132.466 142.93C131.866 142.57 131.186 142.39 130.426 142.39C129.266 142.39 128.306 142.78 127.546 143.56C126.786 144.32 126.406 145.3 126.406 146.5C126.406 147.66 126.786 148.64 127.546 149.44C128.306 150.2 129.266 150.58 130.426 150.58C131.206 150.58 131.896 150.41 132.496 150.07C133.116 149.71 133.576 149.22 133.876 148.6L137.236 150.52C136.576 151.72 135.636 152.67 134.416 153.37C133.216 154.07 131.896 154.42 130.456 154.42ZM153.628 148.09H142.318C142.818 149.97 144.228 150.91 146.548 150.91C148.028 150.91 149.148 150.41 149.908 149.41L153.028 151.21C151.548 153.35 149.368 154.42 146.488 154.42C144.008 154.42 142.018 153.67 140.518 152.17C139.018 150.67 138.268 148.78 138.268 146.5C138.268 144.26 139.008 142.38 140.488 140.86C141.948 139.34 143.848 138.58 146.188 138.58C148.408 138.58 150.218 139.34 151.618 140.86C153.058 142.38 153.778 144.26 153.778 146.5C153.778 146.92 153.728 147.45 153.628 148.09ZM142.258 145.09H149.908C149.688 144.11 149.238 143.36 148.558 142.84C147.898 142.32 147.108 142.06 146.188 142.06C145.148 142.06 144.288 142.33 143.608 142.87C142.928 143.39 142.478 144.13 142.258 145.09ZM173.25 154H168.54L162.66 133H167.01L171.03 148.57L175.41 133H178.95L183.36 148.57L187.38 133H191.73L185.85 154H181.14L177.18 140.14L173.25 154ZM204.944 152.14C203.424 153.66 201.544 154.42 199.304 154.42C197.064 154.42 195.184 153.66 193.664 152.14C192.144 150.62 191.384 148.74 191.384 146.5C191.384 144.28 192.144 142.41 193.664 140.89C195.204 139.35 197.084 138.58 199.304 138.58C201.524 138.58 203.404 139.35 204.944 140.89C206.484 142.43 207.254 144.3 207.254 146.5C207.254 148.72 206.484 150.6 204.944 152.14ZM196.394 149.47C197.174 150.25 198.144 150.64 199.304 150.64C200.464 150.64 201.434 150.25 202.214 149.47C202.994 148.69 203.384 147.7 203.384 146.5C203.384 145.3 202.994 144.31 202.214 143.53C201.434 142.75 200.464 142.36 199.304 142.36C198.144 142.36 197.174 142.75 196.394 143.53C195.634 144.33 195.254 145.32 195.254 146.5C195.254 147.68 195.634 148.67 196.394 149.47ZM213.846 139V141.58C214.186 140.64 214.766 139.93 215.586 139.45C216.406 138.95 217.346 138.7 218.406 138.7V143.02C217.226 142.86 216.166 143.1 215.226 143.74C214.306 144.36 213.846 145.39 213.846 146.83V154H209.976V139H213.846ZM229.66 139V142.72H226.27V148.96C226.27 149.48 226.4 149.86 226.66 150.1C226.92 150.34 227.3 150.48 227.8 150.52C228.3 150.54 228.92 150.53 229.66 150.49V154C227.04 154.3 225.17 154.06 224.05 153.28C222.95 152.48 222.4 151.04 222.4 148.96V142.72H219.79V139H222.4V135.97L226.27 134.8V139H229.66ZM240.728 138.58C242.388 138.58 243.738 139.13 244.778 140.23C245.858 141.35 246.398 142.87 246.398 144.79V154H242.528V145.27C242.528 144.29 242.258 143.53 241.718 142.99C241.198 142.45 240.478 142.18 239.558 142.18C238.538 142.18 237.728 142.5 237.128 143.14C236.548 143.76 236.258 144.68 236.258 145.9V154H232.388V133H236.258V140.68C237.178 139.28 238.668 138.58 240.728 138.58Z" fill="#161E26"/>
<path d="M84.7559 209H78.6119L74.7079 201.768H72.6599V209H66.9319V186.6H75.8919C78.1745 186.6 80.0839 187.336 81.6199 188.808C83.1772 190.237 83.9559 192.083 83.9559 194.344C83.9559 195.667 83.6145 196.893 82.9319 198.024C82.2492 199.155 81.3212 200.051 80.1479 200.712L84.7559 209ZM75.8279 191.88H72.6599V196.904H75.8279C76.5319 196.925 77.1079 196.701 77.5559 196.232C78.0039 195.763 78.2279 195.155 78.2279 194.408C78.2279 193.661 78.0039 193.053 77.5559 192.584C77.1079 192.115 76.5319 191.88 75.8279 191.88ZM91.0146 197.672C91.0146 197.949 91.2386 198.184 91.6866 198.376C92.156 198.547 92.86 198.739 93.7986 198.952C94.4386 199.08 95.0253 199.251 95.5586 199.464C96.1133 199.656 96.6573 199.944 97.1906 200.328C97.7453 200.691 98.172 201.203 98.4706 201.864C98.7906 202.504 98.9506 203.24 98.9506 204.072C98.9506 205.928 98.268 207.283 96.9026 208.136C95.516 209.011 93.8946 209.448 92.0386 209.448C88.4546 209.448 86.0653 208.179 84.8706 205.64L89.5106 203.304C89.916 204.477 90.748 205.064 92.0066 205.064C92.9666 205.064 93.4466 204.776 93.4466 204.2C93.4466 203.923 93.2226 203.699 92.7746 203.528C92.348 203.336 91.6546 203.123 90.6946 202.888C90.0546 202.76 89.468 202.589 88.9346 202.376C88.4226 202.141 87.8893 201.843 87.3346 201.48C86.8013 201.117 86.3853 200.637 86.0866 200.04C85.788 199.421 85.6386 198.717 85.6386 197.928C85.6386 196.221 86.268 194.899 87.5266 193.96C88.7853 193.021 90.3 192.552 92.0706 192.552C95.2066 192.552 97.404 193.789 98.6626 196.264L94.1826 198.28C93.7133 197.363 93.052 196.904 92.1986 196.904C91.4093 196.904 91.0146 197.16 91.0146 197.672ZM103.906 209.448C102.967 209.448 102.167 209.128 101.506 208.488C100.866 207.827 100.546 207.037 100.546 206.12C100.546 205.203 100.876 204.424 101.538 203.784C102.199 203.123 102.988 202.792 103.906 202.792C104.823 202.792 105.602 203.123 106.242 203.784C106.903 204.424 107.234 205.203 107.234 206.12C107.234 207.037 106.903 207.827 106.242 208.488C105.602 209.128 104.823 209.448 103.906 209.448ZM115.926 188.776L122.006 186.6H126.934V209H121.206V192.616L117.302 193.608L115.926 188.776ZM131.512 203.432H137.368L134.68 213.48H130.392L131.512 203.432ZM154.599 206.312C152.978 208.424 150.706 209.48 147.783 209.48C144.86 209.48 142.578 208.424 140.935 206.312C139.314 204.179 138.503 201.341 138.503 197.8C138.503 194.237 139.314 191.411 140.935 189.32C142.556 187.187 144.839 186.12 147.783 186.12C150.706 186.12 152.978 187.187 154.599 189.32C156.242 191.453 157.063 194.28 157.063 197.8C157.063 201.32 156.242 204.157 154.599 206.312ZM147.783 191.688C145.415 191.688 144.231 193.725 144.231 197.8C144.231 201.875 145.415 203.912 147.783 203.912C150.151 203.912 151.335 201.875 151.335 197.8C151.335 193.725 150.151 191.688 147.783 191.688ZM174.755 206.312C173.134 208.424 170.862 209.48 167.939 209.48C165.017 209.48 162.734 208.424 161.091 206.312C159.47 204.179 158.659 201.341 158.659 197.8C158.659 194.237 159.47 191.411 161.091 189.32C162.713 187.187 164.995 186.12 167.939 186.12C170.862 186.12 173.134 187.187 174.755 189.32C176.398 191.453 177.219 194.28 177.219 197.8C177.219 201.32 176.398 204.157 174.755 206.312ZM167.939 191.688C165.571 191.688 164.387 193.725 164.387 197.8C164.387 201.875 165.571 203.912 167.939 203.912C170.307 203.912 171.491 201.875 171.491 197.8C171.491 193.725 170.307 191.688 167.939 191.688ZM179.543 203.432H185.399L182.711 213.48H178.423L179.543 203.432ZM202.63 206.312C201.009 208.424 198.737 209.48 195.814 209.48C192.892 209.48 190.609 208.424 188.966 206.312C187.345 204.179 186.534 201.341 186.534 197.8C186.534 194.237 187.345 191.411 188.966 189.32C190.588 187.187 192.87 186.12 195.814 186.12C198.737 186.12 201.009 187.187 202.63 189.32C204.273 191.453 205.094 194.28 205.094 197.8C205.094 201.32 204.273 204.157 202.63 206.312ZM195.814 191.688C193.446 191.688 192.262 193.725 192.262 197.8C192.262 201.875 193.446 203.912 195.814 203.912C198.182 203.912 199.366 201.875 199.366 197.8C199.366 193.725 198.182 191.688 195.814 191.688ZM222.787 206.312C221.165 208.424 218.893 209.48 215.971 209.48C213.048 209.48 210.765 208.424 209.123 206.312C207.501 204.179 206.691 201.341 206.691 197.8C206.691 194.237 207.501 191.411 209.123 189.32C210.744 187.187 213.027 186.12 215.971 186.12C218.893 186.12 221.165 187.187 222.787 189.32C224.429 191.453 225.251 194.28 225.251 197.8C225.251 201.32 224.429 204.157 222.787 206.312ZM215.971 191.688C213.603 191.688 212.419 193.725 212.419 197.8C212.419 201.875 213.603 203.912 215.971 203.912C218.339 203.912 219.523 201.875 219.523 197.8C219.523 193.725 218.339 191.688 215.971 191.688ZM242.943 206.312C241.322 208.424 239.05 209.48 236.127 209.48C233.204 209.48 230.922 208.424 229.279 206.312C227.658 204.179 226.847 201.341 226.847 197.8C226.847 194.237 227.658 191.411 229.279 189.32C230.9 187.187 233.183 186.12 236.127 186.12C239.05 186.12 241.322 187.187 242.943 189.32C244.586 191.453 245.407 194.28 245.407 197.8C245.407 201.32 244.586 204.157 242.943 206.312ZM236.127 191.688C233.759 191.688 232.575 193.725 232.575 197.8C232.575 201.875 233.759 203.912 236.127 203.912C238.495 203.912 239.679 201.875 239.679 197.8C239.679 193.725 238.495 191.688 236.127 191.688ZM262.043 183.4L249.243 212.2H247.003L259.803 183.4H262.043ZM277.068 201.896H264.588V196.84H277.068V201.896Z" fill="#FC2727"/>
</svg>
